  <svg
    width="25"
    height="24"
    viewBox="0 0 25 24"
    fill="#377dff"
    xmlns="http://www.w3.org/2000/svg"
  >
    <circle opacity="0.3" cx="12.5" cy="12" r="10" fill="inherit" />
    <path
      fill-rule="evenodd"
      clip-rule="evenodd"
      d="M16.7782 7.79289C16.3877 7.40237 15.7545 7.40237 15.364 7.79289L12.5355 10.6213L9.70711 7.79289C9.31658 7.40237 8.68342 7.40237 8.29289 7.79289C7.90237 8.18342 7.90237 8.81658 8.29289 9.20711L11.1213 12.0355L8.29289 14.864C7.90237 15.2545 7.90237 15.8877 8.29289 16.2782C8.68342 16.6687 9.31658 16.6687 9.70711 16.2782L12.5355 13.4497L15.364 16.2782C15.7545 16.6687 16.3877 16.6687 16.7782 16.2782C17.1687 15.8877 17.1687 15.2545 16.7782 14.864L13.9497 12.0355L16.7782 9.20711C17.1687 8.81658 17.1687 8.18342 16.7782 7.79289Z"
      fill="inherit"
    />
  </svg>